<?xml version="1.0" encoding="UTF-8"?>
<svg id="Layer_1" data-name="Layer 1" xmlns="http://www.w3.org/2000/svg" viewBox="0 0 150 50">
  <defs>
    <style>
      .cls-1 {
        fill: none;
      }

      .cls-1, .cls-2 {
        stroke-width: 0px;
      }

      .cls-2 {
        fill: #00204a;
      }
    </style>
  </defs>
  <rect class="cls-1" width="150" height="50"/>
  <rect class="cls-1" width="150" height="50"/>
  <g>
    <g id="SvgjsG1180">
      <path class="cls-2" d="m110.3,48.9H39.7V1.1h70.6v47.8Zm-69.4-1.2h68.1V2.3H40.9v45.4Z"/>
    </g>
    <g id="SvgjsG1181">
      <g>
        <rect class="cls-2" x="67.5" y="26.2" width="15.1" height=".6"/>
        <g>
          <path class="cls-2" d="m71.3,26h-2.5v-11.1h2.5s0,11.1,0,11.1Zm-2.2-.3h1.9v-10.5h-1.9v10.5Z"/>
          <path class="cls-2" d="m71.3,17.4h-2.5v-1.3h2.5s0,1.3,0,1.3Zm-2.2-.3h1.9v-.7h-1.9v.7Z"/>
          <path class="cls-2" d="m71.3,24.9h-2.5v-1.3h2.5s0,1.3,0,1.3Zm-2.2-.3h1.9v-.7h-1.9v.7Z"/>
        </g>
        <g>
          <path class="cls-2" d="m79.2,26l-2.9-10.8,2.4-.6,2.9,10.8-2.4.6Zm-2.5-10.5l2.7,10.2,1.8-.5-2.7-10.2-1.8.5Z"/>
          <path class="cls-2" d="m78.9,24.8l-.3-1.2,2.4-.6.3,1.2-2.4.6Zm0-1l.2.7,1.8-.5-.2-.7-1.8.5Z"/>
          <path class="cls-2" d="m77,17.6l-.3-1.2,2.4-.6.3,1.2-2.4.6Zm0-1l.2.7,1.8-.5-.2-.7-1.8.5Z"/>
        </g>
        <g>
          <path class="cls-2" d="m76.7,26l-2.9-10.8,2.4-.6,2.9,10.8-2.4.6Zm-2.5-10.5l2.7,10.2,1.8-.5-2.7-10.2-1.8.5Z"/>
          <path class="cls-2" d="m76.4,24.8l-.3-1.2,2.4-.6.3,1.2-2.4.6Zm0-1l.2.7,1.8-.5-.2-.7-1.8.5Z"/>
          <path class="cls-2" d="m74.4,17.6l-.3-1.2,2.4-.6.3,1.2-2.4.6Zm0-1l.2.7,1.8-.5-.2-.7-1.8.5Z"/>
        </g>
        <g>
          <path class="cls-2" d="m74.1,26l-2.9-10.8,2.4-.6,2.9,10.8-2.4.6Zm-2.5-10.5l2.7,10.2,1.8-.5-2.7-10.2-1.8.5Z"/>
          <path class="cls-2" d="m73.8,24.8l-.3-1.2,2.4-.6.3,1.2-2.4.6Zm0-1l.2.7,1.8-.5-.2-.7-1.8.5Z"/>
          <path class="cls-2" d="m71.9,17.6l-.3-1.2,2.4-.6.3,1.2-2.4.6Zm0-1l.2.7,1.8-.5-.2-.7-1.8.5Z"/>
        </g>
      </g>
    </g>
    <g id="SvgjsG1182">
      <path class="cls-2" d="m53.1,31.3v1.3h0c0-.1.2-.2.3-.3s.3-.1.5-.1c.3,0,.6.1.8.4s.3.6.3,1-.1.8-.3,1-.5.4-.8.4-.7-.1-.9-.4h0v.3h-.7v-3.7h.7,0Zm0,2.4c0,.3,0,.5.2.6s.3.2.5.2.3,0,.5-.2c.1-.2.2-.4.2-.6s0-.5-.2-.6-.3-.2-.5-.2-.3,0-.5.2-.2.4-.2.6Zm3.9-1.4c.4,0,.8.1,1,.4s.4.6.4,1-.1.8-.4,1-.6.4-1,.4-.8-.1-1-.4-.4-.6-.4-1,.1-.8.4-1,.6-.4,1-.4Zm-.6,1.4c0,.3,0,.5.2.6s.3.2.5.2.4,0,.5-.2.2-.4.2-.6,0-.5-.2-.6-.3-.2-.5-.2-.4,0-.5.2-.2.4-.2.6Zm3.9-1.4c.4,0,.8.1,1,.4s.4.6.4,1-.1.8-.4,1-.6.4-1,.4-.8-.1-1-.4-.4-.6-.4-1,.1-.8.4-1,.6-.4,1-.4Zm-.6,1.4c0,.3,0,.5.2.6s.3.2.5.2.4,0,.5-.2.2-.4.2-.6,0-.5-.2-.6-.3-.2-.5-.2-.4,0-.5.2-.2.4-.2.6Zm3.4-2.4v2l.9-1h.9l-1,1,1.1,1.7h-.9l-.7-1.2-.3.3v.9h-.7v-3.7s.7,0,.7,0Zm4.4,1l.5,1.8h0l.4-1.8h.7l.5,1.8h0l.5-1.8h.8l-.8,2.7h-.8l-.5-1.8h0l-.5,1.8h-.8l-.9-2.7h.8,0Zm5,0c.8,0,1.2.3,1.2.8v1.4c0,.3,0,.5,0,.6h-.7c0,0,0-.2,0-.3-.2.2-.5.3-.9.3s-.5,0-.7-.2-.2-.3-.2-.6,0-.4.2-.6c.2-.1.4-.2.9-.3.3,0,.5,0,.6-.1s.1-.1.1-.2,0-.2-.1-.3-.2,0-.4,0-.3,0-.4,0-.1.2-.1.3h-.7c0-.3.1-.5.4-.7s.5-.2.9-.2h0Zm-.6,2c0,.2.2.3.5.3.4,0,.6-.2.6-.6v-.3c0,0-.2.1-.4.1-.2,0-.4,0-.5.1s-.1.2-.1.3Zm4-2c0,0,.1,0,.2,0v.7c0,0-.2,0-.3,0-.5,0-.7.3-.7.9v1.2h-.7v-2.7h.7v.5h0c0-.2.2-.3.3-.4s.3-.2.5-.2h0Zm2.1,0c.4,0,.7.1.8.4.2-.3.5-.4.8-.4s.6,0,.7.3.2.4.2.7v1.8h-.7v-1.6c0-.2,0-.4-.1-.5s-.2-.1-.3-.1c-.3,0-.5.2-.5.7v1.5h-.7v-1.6c0-.2,0-.4-.1-.5s-.2-.1-.3-.1-.3,0-.4.2-.1.3-.1.4v1.6h-.7v-2.7h.7v.4h0c.2-.3.5-.4.8-.4Zm5.6-.9v1.4h0c0-.1.2-.2.3-.3s.3-.1.5-.1c.3,0,.6,0,.7.3s.2.4.2.8v1.7h-.7v-1.5c0-.2,0-.4-.1-.5s-.2-.2-.4-.2-.3,0-.4.2-.1.3-.1.6v1.4h-.7v-3.7s.7,0,.7,0Zm3.7.9c.8,0,1.2.3,1.2.8v1.4c0,.3,0,.5,0,.6h-.7c0,0,0-.2,0-.3-.2.2-.5.3-.9.3s-.5,0-.7-.2-.2-.3-.2-.6,0-.4.2-.6c.2-.1.4-.2.9-.3.3,0,.5,0,.6-.1s.1-.1.1-.2,0-.2-.1-.3-.2,0-.4,0-.3,0-.4,0-.1.2-.1.3h-.7c0-.3.1-.5.4-.7s.5-.2.9-.2h0Zm-.6,2c0,.2.2.3.5.3.4,0,.6-.2.6-.6v-.3c0,0-.2.1-.4.1-.2,0-.4,0-.5.1s-.1.2-.1.3h0Zm3-1.9l.6,1.8h0l.6-1.8h.7l-.9,2.7h-.8l-.9-2.7h.8Zm3.5,0c.3,0,.5,0,.7.2s.4.3.5.5.2.5.2.8,0,0,0,.1h-1.9c0,.2,0,.4.2.5s.3.2.5.2.3,0,.4-.1.2-.1.2-.2h.6c-.2.6-.6.9-1.3.9-.2,0-.5,0-.7-.2s-.4-.3-.5-.5-.2-.5-.2-.8,0-.5.2-.7.3-.4.5-.5.4-.2.7-.2h0Zm.6,1.1c0-.2,0-.3-.2-.4s-.2-.1-.4-.1-.3,0-.4.2-.2.2-.2.4h1.2Zm2.8-1.1c.3,0,.6,0,.7.3s.2.4.2.8v1.7h-.7v-1.5c0-.2,0-.4-.1-.5s-.2-.2-.4-.2-.3,0-.4.2-.1.3-.1.6v1.4h-.7v-2.7h.7v.4h0c.2-.3.5-.4.8-.4h0Z"/>
    </g>
  </g>
</svg>